<svg width="13" height="14" viewBox="0 0 13 14" fill="none" xmlns="http://www.w3.org/2000/svg">
<path d="M9.9553 4.80186C8.32903 3.89226 5.71882 2.43166 1.67019 0.164734C1.39723 -0.015534 1.08317 -0.0391578 0.811829 0.0526851L7.75815 6.99901L9.9553 4.80186Z" fill="#32BBFF"/>
<path d="M0.811735 0.0532227C0.760878 0.0704483 0.711388 0.0912285 0.664059 0.116329C0.364414 0.278414 0.144226 0.590308 0.144226 0.984776V13.0143C0.144226 13.4088 0.364387 13.7207 0.664059 13.8827C0.711306 13.9078 0.760769 13.9287 0.811571 13.946L7.75806 6.99955L0.811735 0.0532227Z" fill="#32BBFF"/>
<path d="M7.75809 6.99951L0.8116 13.946C1.08303 14.0385 1.39708 14.0167 1.67012 13.8338C5.59643 11.6352 8.17722 10.1919 9.8223 9.27456C9.8681 9.24883 9.91297 9.22368 9.95732 9.19877L7.75809 6.99951Z" fill="#32BBFF"/>
<path d="M0.144226 6.99927V13.014C0.144226 13.4085 0.364387 13.7204 0.664059 13.8825C0.711306 13.9075 0.760769 13.9284 0.811571 13.9457L7.75806 6.99927H0.144226Z" fill="#2C9FD9"/>
<path d="M1.67008 0.164817C1.34594 -0.0492187 0.963692 -0.0431214 0.664047 0.115902L7.65261 7.1045L9.95517 4.80194C8.32893 3.89234 5.71872 2.43174 1.67008 0.164817Z" fill="#29CC5E"/>
<path d="M7.65267 6.89453L0.664047 13.8831C0.963719 14.0421 1.34594 14.0513 1.67008 13.8342C5.59639 11.6356 8.17718 10.1923 9.82226 9.27496C9.86806 9.24923 9.91292 9.22407 9.95727 9.19916L7.65267 6.89453Z" fill="#D93F21"/>
<path d="M12.8558 6.99788C12.8558 6.66457 12.6876 6.32821 12.3543 6.14168C12.3543 6.14168 11.7309 5.79386 9.82014 4.7251L7.54736 6.99788L9.82236 9.27289C11.7121 8.21182 12.3543 7.85405 12.3543 7.85405C12.6876 7.66754 12.8558 7.33118 12.8558 6.99788Z" fill="#FFD500"/>
<path d="M12.3543 7.85547C12.6876 7.66894 12.8558 7.33257 12.8558 6.99927H7.54736L9.82236 9.27429C11.7122 8.21324 12.3543 7.85547 12.3543 7.85547Z" fill="#FFAA00"/>
</svg>
