<svg width="40" height="27" viewBox="0 0 40 27" fill="none" xmlns="http://www.w3.org/2000/svg">
<g clip-path="url(#clip0_1370_466)">
<path d="M0.00244141 17.888H39.9997V26.9998H0.00244141V17.888Z" fill="#11892E"/>
<path d="M0.00280762 -9.15527e-05H40V9.1125H0.00280762V-9.15527e-05Z" fill="#F2963B"/>
<path d="M0 9.11493H39.9997V17.8893H0V9.11493Z" fill="white"/>
<path d="M23.6351 13.018C23.3709 10.9857 21.5291 9.55443 19.522 9.82195C17.5126 10.0905 16.1003 11.9543 16.3644 13.9865C16.6286 16.0188 18.4703 17.4489 20.4796 17.1825C22.4867 16.9138 23.8992 15.0504 23.6351 13.018ZM23.201 13.7424C23.1022 13.7319 23.0104 13.8016 22.9988 13.9016C22.9851 14.0016 23.0515 14.0934 23.1505 14.1085C23.1364 14.1841 23.1181 14.2598 23.0998 14.3341L21.4234 13.7783L20.6289 13.6212C20.6331 13.5979 20.6381 13.5748 20.6403 13.5514L21.4437 13.6083L23.2076 13.5118C23.208 13.5889 23.2033 13.6655 23.201 13.7424ZM16.8009 13.2621C16.8995 13.2726 16.9891 13.2016 17.0029 13.1029C17.0168 13.0028 16.9478 12.9121 16.849 12.8948C16.8628 12.8204 16.8812 12.7448 16.8995 12.6704L18.576 13.2262L19.3728 13.3832C19.3683 13.4052 19.3636 13.4285 19.3614 13.453L18.5552 13.3961L16.7939 13.4925C16.7939 13.4156 16.796 13.3388 16.8009 13.2621ZM16.849 14.1085C16.9478 14.0934 17.0168 14.0015 17.0029 13.9016C16.9891 13.8016 16.8995 13.7317 16.8009 13.7424C16.7962 13.6655 16.7939 13.5878 16.7939 13.5122L18.5552 13.6087L19.3636 13.5518C19.366 13.5635 19.3636 13.5751 19.366 13.5878C19.366 13.5995 19.3705 13.6098 19.3728 13.6216L18.576 13.7787L16.8995 14.3345C16.8812 14.2598 16.865 14.1853 16.849 14.1085ZM21.4442 13.3961L20.6381 13.453C20.6358 13.4414 20.6381 13.4297 20.6358 13.4169C20.6358 13.4054 20.6312 13.3937 20.6289 13.3832L21.4234 13.2262L23.0998 12.6704C23.1181 12.7448 23.1364 12.8204 23.1505 12.896C23.0515 12.9123 22.9849 13.003 22.9988 13.1029C23.0104 13.2017 23.0998 13.2726 23.1986 13.2621C23.203 13.3388 23.2079 13.4167 23.2079 13.4924L21.4442 13.3961ZM23.0288 12.4322C23.0518 12.5043 23.077 12.5775 23.0979 12.6519L21.3687 13.0205L20.6062 13.2867C20.597 13.2646 20.5855 13.2437 20.5766 13.2216L21.3047 12.8623L22.7816 11.8868C22.8205 11.9531 22.8551 12.0205 22.8892 12.0903C22.7999 12.1321 22.756 12.2379 22.7946 12.331C22.8311 12.4229 22.9369 12.4681 23.0288 12.4322ZM22.3996 11.6392C22.4591 11.7183 22.5719 11.7333 22.6499 11.6764C22.6957 11.7392 22.7348 11.8043 22.7717 11.8705L21.1986 12.6786L20.528 13.1367C20.514 13.118 20.5027 13.0971 20.4867 13.0796L21.0952 12.5425L22.2733 11.2125C22.3259 11.2672 22.3792 11.3229 22.4294 11.3823C22.3514 11.446 22.3398 11.559 22.3996 11.6392ZM21.8414 11.0728C21.9195 11.1345 22.0322 11.1194 22.0942 11.0426C22.1519 11.0926 22.2071 11.1449 22.262 11.1996L20.9484 12.3925L20.4153 13.011C20.397 12.9959 20.3812 12.9808 20.3601 12.968L20.8148 12.2879L21.6116 10.6951C21.6757 10.7334 21.74 10.7754 21.8041 10.8184C21.7475 10.8997 21.7611 11.0125 21.8414 11.0728ZM21.1571 10.673C21.2489 10.7114 21.3523 10.6684 21.3935 10.5777C21.4625 10.6113 21.5311 10.6473 21.5957 10.6857L20.6312 12.1821L20.2776 12.9169C20.2566 12.9064 20.2338 12.8994 20.211 12.8914L20.4771 12.116L20.8379 10.3685C20.9114 10.3883 20.9849 10.4115 21.0583 10.4372C21.0217 10.5301 21.0654 10.6346 21.1571 10.673ZM20.2361 10.2638C20.2269 10.3626 20.2959 10.4532 20.3947 10.4661C20.4935 10.479 20.5829 10.4114 20.599 10.3115C20.6751 10.3266 20.7485 10.3441 20.8216 10.3638L20.2729 12.0613L20.1189 12.8669C20.0934 12.8623 20.0731 12.8566 20.0478 12.8542L20.1053 12.038L20.0091 10.2544C20.0847 10.2544 20.1627 10.2581 20.2361 10.2638ZM19.6047 10.4661C19.7035 10.4533 19.7746 10.3626 19.7656 10.2638C19.839 10.258 19.9171 10.2556 19.9907 10.2544L19.8964 12.038L19.9515 12.8564C19.94 12.8576 19.9286 12.8564 19.9171 12.8576C19.9056 12.8588 19.8919 12.8646 19.8803 12.8669L19.7265 12.0613L19.1776 10.3626C19.251 10.3441 19.3245 10.3266 19.4003 10.3115C19.4165 10.4114 19.506 10.4788 19.6047 10.4661ZM18.8424 10.673C18.9365 10.6346 18.9779 10.5288 18.9434 10.4347C19.0145 10.4102 19.088 10.3883 19.1615 10.3684L19.5243 12.1158L19.7862 12.889C19.7654 12.8984 19.7448 12.9087 19.7241 12.9193L19.3681 12.1822L18.4059 10.6847C18.4701 10.6475 18.5369 10.6113 18.6057 10.5777C18.6471 10.6684 18.7504 10.7114 18.8424 10.673ZM18.1603 11.0728C18.2384 11.0124 18.2545 10.8986 18.1947 10.817C18.2589 10.7739 18.321 10.7333 18.3899 10.6949L19.1844 12.2877L19.6391 12.9679C19.6208 12.9806 19.6 12.9947 19.5817 13.0097L19.0512 12.3924L17.7375 11.1994C17.7951 11.1447 17.8478 11.0924 17.9075 11.0425C17.9673 11.1194 18.0799 11.1345 18.1603 11.0728ZM17.6021 11.6392C17.6619 11.559 17.6481 11.4462 17.5723 11.3823C17.6182 11.3242 17.6733 11.2683 17.7263 11.2125L18.9043 12.5425L19.5153 13.0808C19.5015 13.0983 19.4854 13.118 19.4716 13.1367L18.8011 12.6786L17.228 11.8705C17.2647 11.8043 17.306 11.738 17.3496 11.6752C17.4277 11.7333 17.5426 11.7182 17.6021 11.6392ZM17.2049 12.3309C17.244 12.2379 17.2025 12.1321 17.1106 12.0902C17.145 12.0215 17.1795 11.9529 17.2185 11.8867L18.6951 12.8622L19.4232 13.2215C19.414 13.2424 19.4049 13.2656 19.398 13.2877L18.631 13.0203L16.9041 12.6529C16.9247 12.5773 16.9477 12.5053 16.9705 12.4321C17.0626 12.4681 17.1681 12.4229 17.2049 12.3309ZM16.9707 14.5724C16.9478 14.5004 16.9249 14.426 16.9042 14.3516L18.6311 13.9831L19.3958 13.718C19.4028 13.7399 19.4143 13.7611 19.4233 13.782L18.6953 14.1426L17.2186 15.1178C17.1795 15.0517 17.1452 14.9843 17.1108 14.9143C17.2027 14.8737 17.244 14.7667 17.205 14.6738C17.1681 14.5806 17.0626 14.5352 16.9707 14.5724ZM17.6021 15.3655C17.5426 15.2863 17.4277 15.2712 17.3495 15.3295C17.3059 15.2653 17.2646 15.2004 17.2279 15.1341L18.8009 14.3261L19.4715 13.8668C19.4852 13.8866 19.499 13.9063 19.5151 13.925L18.9041 14.4621L17.7261 15.791C17.6733 15.7364 17.6204 15.6807 17.5721 15.6223C17.6482 15.5583 17.662 15.4457 17.6021 15.3655ZM18.1603 15.9315C18.0799 15.8698 17.9675 15.8851 17.9076 15.9617C17.8501 15.9118 17.7951 15.8596 17.7377 15.8048L19.0514 14.612L19.5842 13.9922C19.6025 14.0083 19.6209 14.0234 19.6392 14.0351L19.1846 14.7153L18.3901 16.3091C18.3235 16.2707 18.2591 16.229 18.1948 16.1858C18.2544 16.1058 18.2384 15.992 18.1603 15.9315ZM18.8424 16.3302C18.7504 16.293 18.6471 16.3348 18.6058 16.4265C18.5369 16.3927 18.4703 16.3555 18.406 16.3185L19.3683 14.8221L19.7243 14.0861C19.7449 14.0966 19.7679 14.1046 19.7885 14.1118L19.5243 14.8882L19.1615 16.6356C19.088 16.6159 19.0168 16.5938 18.9434 16.5682C18.9779 16.4744 18.9341 16.3698 18.8424 16.3302ZM19.7656 16.7407C19.7748 16.6419 19.7035 16.5515 19.6047 16.5384C19.506 16.5245 19.4165 16.5943 19.4003 16.692C19.3244 16.678 19.2509 16.6605 19.1776 16.6408L19.7265 14.9434L19.8803 14.1377C19.9056 14.1421 19.9286 14.1479 19.9515 14.1504L19.8964 14.9655L19.9907 16.7502C19.9147 16.7501 19.839 16.7477 19.7656 16.7407ZM20.3947 16.5384C20.2959 16.5513 20.2269 16.6407 20.2361 16.7407C20.1603 16.7453 20.0847 16.749 20.0088 16.749L20.1051 14.9655L20.0475 14.147C20.0589 14.1458 20.0731 14.1482 20.0819 14.1459C20.093 14.1447 20.1072 14.1401 20.1186 14.1377L20.2726 14.9434L20.8214 16.6408C20.7479 16.6605 20.6744 16.678 20.5987 16.692C20.5831 16.5943 20.4935 16.5245 20.3947 16.5384ZM21.1571 16.3302C21.0652 16.3698 21.0216 16.4744 21.0583 16.5684C20.9849 16.5938 20.9114 16.6159 20.8379 16.6358L20.4771 14.8884L20.2132 14.1153C20.2338 14.106 20.2542 14.0956 20.2773 14.084L20.6309 14.8221L21.5954 16.3185C21.5313 16.3569 21.4622 16.3929 21.3932 16.4265C21.3523 16.3351 21.2489 16.293 21.1571 16.3302ZM21.8414 15.9315C21.7611 15.992 21.7473 16.1058 21.8047 16.1875C21.7406 16.2292 21.6785 16.271 21.6119 16.3094L20.8154 14.7156L20.361 14.0354C20.3818 14.0237 20.402 14.0099 20.4185 13.995L20.949 14.6123L22.2626 15.8051C22.2075 15.8598 22.1523 15.9121 22.0948 15.962C22.032 15.885 21.9195 15.8698 21.8414 15.9315ZM22.3996 15.3655C22.3398 15.4457 22.3538 15.5584 22.4294 15.6213C22.3813 15.6806 22.3259 15.7364 22.2733 15.7911L21.0952 14.4623L20.4843 13.924C20.4982 13.9055 20.514 13.8868 20.528 13.8669L21.1986 14.3262L22.7717 15.1331C22.7348 15.2005 22.6935 15.2656 22.6499 15.3296C22.5695 15.2711 22.4591 15.2862 22.3996 15.3655ZM22.7945 14.6738C22.7551 14.7667 22.799 14.8725 22.8888 14.9145C22.8544 14.9829 22.8197 15.0504 22.7809 15.1178L21.3042 14.1426L20.5785 13.7832C20.5877 13.7623 20.5946 13.739 20.6038 13.7171L21.3687 13.9833L23.0959 14.3517C23.0774 14.4261 23.052 14.5007 23.0293 14.5714C22.9369 14.5364 22.8311 14.5817 22.7945 14.6738Z" fill="#21296F"/>
</g>
<defs>
<clipPath id="clip0_1370_466">
<rect width="40" height="27" rx="5" fill="white"/>
</clipPath>
</defs>
</svg>
