<svg width="13" height="14" viewBox="0 0 13 14" fill="none" xmlns="http://www.w3.org/2000/svg">
<path d="M8.44713 2.27236C8.90388 1.68349 9.2495 0.850494 9.12438 0C8.37801 0.0516246 7.50564 0.529371 6.99726 1.15149C6.53352 1.71586 6.15202 2.55411 6.30077 3.36873C7.11626 3.3941 7.95888 2.90498 8.44713 2.27236Z" fill="#050505"/>
<path d="M12.074 4.69697C11.3574 3.79835 10.3502 3.27686 9.39913 3.27686C8.14351 3.27686 7.61239 3.87798 6.74002 3.87798C5.84052 3.87798 5.15715 3.27861 4.07129 3.27861C3.00467 3.27861 1.86893 3.93048 1.14881 5.04522C0.136439 6.61496 0.309688 9.56631 1.9503 12.0802C2.53742 12.9797 3.32142 13.9912 4.34691 13.9999C5.25953 14.0087 5.51678 13.4145 6.75314 13.4084C7.98951 13.4014 8.22401 14.0078 9.13488 13.9982C10.1612 13.9903 10.9881 12.8694 11.5752 11.9699C11.9961 11.3251 12.1527 11.0004 12.4791 10.2724C10.1052 9.36856 9.72462 5.99284 12.074 4.69697Z" fill="#050505"/>
</svg>
