<svg width="48" height="48" viewBox="0 0 48 48" fill="none" xmlns="http://www.w3.org/2000/svg">
<rect opacity="0.1" width="48" height="48" rx="24" fill="#0461FE"/>
<path d="M33 32.75L15 14.75M19 18.75V25.75C19 28.5114 21.2386 30.75 24 30.75C25.8931 30.75 27.5404 29.6979 28.3893 28.1466M16 23.75V25.75C16 30.1683 19.5817 33.75 24 33.75C26.6397 33.75 28.9808 32.4715 30.4378 30.5M32 23.75V25.75C32 26.368 31.9299 26.9696 31.7973 27.5473M29 24.75V18.75C29 15.9886 26.7614 13.75 24 13.75C22.3643 13.75 20.912 14.5355 19.9998 15.7498" stroke="#0461FE" stroke-width="1.5" stroke-linecap="round"/>
</svg>
