<svg width="48" height="48" viewBox="0 0 48 48" fill="none" xmlns="http://www.w3.org/2000/svg">
<rect opacity="0.1" width="48" height="48" rx="24" fill="#0461FE"/>
<path d="M13.5348 22.9714C13.6085 21.7626 13.6453 21.1581 13.9585 20.5768C14.2447 20.0456 14.7923 19.5304 15.3399 19.2771C15.9392 18.9998 16.6262 18.9998 18.0001 18.9998C18.5122 18.9998 18.7682 18.9998 19.0162 18.9579C19.2614 18.9165 19.5005 18.8448 19.7279 18.7444C19.9581 18.6428 20.1718 18.5019 20.5993 18.22L20.8183 18.0757C23.3612 16.399 24.6327 15.5606 25.7001 15.9249C25.9047 15.9947 26.1028 16.0955 26.2797 16.2198C27.2024 16.8683 27.2725 18.377 27.4127 21.3944C27.4646 22.5117 27.5 23.4679 27.5 23.9998C27.5 24.5317 27.4646 25.4879 27.4127 26.6052C27.2725 29.6226 27.2024 31.1313 26.2797 31.7797C26.1028 31.9041 25.9047 32.0049 25.7001 32.0747C24.6327 32.4389 23.3612 31.6006 20.8183 29.9239L20.5993 29.7796C20.1718 29.4977 19.9581 29.3567 19.7279 29.2552C19.5005 29.1548 19.2614 29.0831 19.0162 29.0417C18.7682 28.9998 18.5122 28.9998 18.0001 28.9998C16.6262 28.9998 15.9392 28.9998 15.3399 28.7225C14.7923 28.4692 14.2447 27.9539 13.9585 27.4228C13.6453 26.8414 13.6085 26.237 13.5348 25.0282C13.513 24.6706 13.5 24.3222 13.5 23.9998C13.5 23.6774 13.513 23.329 13.5348 22.9714Z" stroke="#0461FE" stroke-width="1.5"/>
<path d="M32 18C32 18 33.5 19.8 33.5 24C33.5 28.2 32 30 32 30" stroke="#0461FE" stroke-width="1.5" stroke-linecap="round"/>
<path d="M30 21C30 21 30.5 21.9 30.5 24C30.5 26.1 30 27 30 27" stroke="#0461FE" stroke-width="1.5" stroke-linecap="round"/>
</svg>
