<svg width="226" height="226" viewBox="0 0 226 226" fill="none" xmlns="http://www.w3.org/2000/svg">
<path opacity="0.1" d="M222 113C222 173.199 173.199 222 113 222C52.801 222 4 173.199 4 113C4 52.801 52.801 4 113 4C173.199 4 222 52.801 222 113Z" fill="#0461FE" stroke="#0461FE" stroke-width="8"/>
<path d="M203.681 180.344C193.142 166.234 179.457 154.777 163.715 146.884C147.972 138.99 130.605 134.877 112.994 134.871C95.383 134.866 78.0135 138.968 62.2659 146.852C46.5182 154.736 32.8265 166.184 22.2788 180.287C32.7728 194.461 46.4422 205.98 62.1908 213.918C77.9394 221.857 95.3291 225.995 112.965 226C130.602 226.006 147.994 221.879 163.748 213.95C179.501 206.021 193.178 194.512 203.681 180.344Z" fill="url(#paint0_linear_1821_827)"/>
<path d="M113 120.291C137.158 120.291 156.742 100.707 156.742 76.5486C156.742 52.3906 137.158 32.8066 113 32.8066C88.842 32.8066 69.2581 52.3906 69.2581 76.5486C69.2581 100.707 88.842 120.291 113 120.291Z" fill="url(#paint1_linear_1821_827)"/>
<defs>
<linearGradient id="paint0_linear_1821_827" x1="203.681" y1="134.871" x2="23.0917" y2="220.797" gradientUnits="userSpaceOnUse">
<stop stop-color="#0461FE"/>
<stop offset="1" stop-color="#023A98"/>
</linearGradient>
<linearGradient id="paint1_linear_1821_827" x1="156.742" y1="32.8066" x2="55.7055" y2="56.9572" gradientUnits="userSpaceOnUse">
<stop stop-color="#0461FE"/>
<stop offset="1" stop-color="#023A98"/>
</linearGradient>
</defs>
</svg>
